<?xml version="1.0" encoding="UTF-8"?>
<svg xmlns="http://www.w3.org/2000/svg" xmlns:xlink="http://www.w3.org/1999/xlink" width="128px" height="128px" viewBox="0 0 128 128" version="1.1">
<g id="surface1">
<path style=" stroke:none;fill-rule:nonzero;fill:rgb(40.392157%,22.745098%,71.764708%);fill-opacity:1;" d="M 51.992188 102.511719 C 52.636719 107.003906 53.917969 111.5 55.84375 115.351562 L 12.835938 115.351562 C 5.777344 115.351562 0 109.574219 0 102.511719 L 0 12.648438 C 0 5.589844 5.777344 -0.1875 12.835938 -0.1875 L 89.863281 -0.1875 L 115.539062 25.488281 L 115.539062 55.65625 C 111.683594 53.730469 107.191406 52.445312 102.699219 51.800781 L 102.699219 30.621094 L 84.726562 12.648438 L 12.835938 12.648438 L 12.835938 102.511719 L 51.992188 102.511719 M 57.769531 57.578125 C 46.859375 57.578125 38.511719 65.925781 38.511719 76.835938 C 38.511719 85.183594 43.648438 92.242188 51.351562 94.808594 C 51.992188 80.6875 58.410156 68.492188 68.679688 60.789062 C 65.472656 58.863281 61.621094 57.578125 57.769531 57.578125 M 77.023438 44.742188 L 77.023438 19.066406 L 19.257812 19.066406 L 19.257812 44.742188 L 77.023438 44.742188 M 127.09375 106.363281 L 120.671875 117.277344 C 120.03125 117.921875 119.386719 117.921875 118.746094 117.921875 L 111.046875 115.351562 C 109.121094 116.636719 107.835938 117.277344 105.910156 118.5625 L 104.625 126.90625 C 104.625 127.550781 103.984375 128.191406 103.339844 128.191406 L 90.503906 128.191406 C 89.859375 128.191406 89.21875 127.550781 88.578125 126.90625 L 87.292969 118.5625 C 85.367188 117.921875 83.441406 116.636719 82.15625 115.351562 L 74.453125 118.5625 C 73.8125 118.5625 73.171875 118.5625 72.53125 117.921875 L 66.109375 107.007812 C 65.46875 106.363281 66.109375 105.722656 66.753906 105.082031 L 73.8125 99.949219 L 73.8125 93.527344 L 66.753906 88.390625 C 66.109375 87.75 66.109375 87.109375 66.109375 86.46875 L 72.53125 75.554688 C 73.171875 74.914062 73.816406 74.914062 74.453125 74.914062 L 82.15625 78.121094 C 84.082031 76.835938 85.367188 76.199219 87.292969 74.914062 L 88.578125 66.566406 C 88.578125 65.925781 89.21875 65.28125 90.503906 65.28125 L 103.339844 65.28125 C 103.984375 65.28125 104.625 65.925781 104.625 66.566406 L 105.910156 74.914062 C 107.835938 75.554688 109.761719 76.835938 111.6875 78.121094 L 119.390625 74.914062 C 120.03125 74.914062 121.316406 74.914062 121.316406 75.554688 L 127.734375 86.46875 C 128.378906 87.109375 127.734375 87.753906 127.09375 88.390625 L 120.03125 93.527344 L 120.03125 99.949219 L 127.09375 105.082031 C 127.734375 105.078125 127.734375 105.722656 127.09375 106.363281 M 105.910156 96.09375 C 105.910156 90.960938 101.417969 86.46875 96.28125 86.46875 C 91.148438 86.46875 86.65625 90.960938 86.65625 96.09375 C 86.65625 101.230469 91.148438 105.722656 96.28125 105.722656 C 101.417969 105.722656 105.910156 101.230469 105.910156 96.09375 Z M 105.910156 96.09375 "/>
</g>
</svg>
